<svg xmlns="http://www.w3.org/2000/svg" width="896" height="288" viewBox="0 0 896 288" fill="none">
  <style>
    * {
      transform-origin: center;
      transform-box: fill-box;
    }

    .animate-ping {
      animation: ping 1s cubic-bezier(0, 0, 0.2, 1) infinite;
    }

    .animate-fade-in {
      animation: fade-in 0.64s cubic-bezier(0, 0, 0.2, 1) forwards;
    }

    .animate-fade-in-bottom {
      animation: fade-in-bottom 0.64s cubic-bezier(0, 0, 0.2, 1) forwards;
    }

    .animate-fade-in-right {
      animation: fade-in-right 0.64s cubic-bezier(0, 0, 0.2, 1) forwards;
    }

    .title {
      opacity: 0;
      animation-delay: 0.4s;
    }

    .description {
      opacity: 0;
      animation-delay: 0.7s;
    }

    .additional {
      opacity: 0;
      animation-delay: 1s;
    }

    .additional__indicator {
      opacity: 0;
      animation-delay: 1.6s;
    }

    @keyframes ping {
      75%,
      100% {
        transform: scale(2);
        opacity: 0;
      }
    }

    @keyframes fade-in {
      from {
        opacity: 0;
      }
      to {
        opacity: 1;
      }
    }

    @keyframes fade-in-bottom {
      from {
        opacity: 0;
        transform: translate3d(0, -20px, 0);
      }
      to {
        opacity: 1;
        transform: translate3d(0, 0, 0);
      }
    }

    @keyframes fade-in-right {
      from {
        opacity: 0;
        transform: translate3d(-20px, 0, 0);
      }
      to {
        opacity: 1;
        transform: translate3d(0, 0, 0);
      }
    }
  </style>
  <g clip-path="url(#clip0_1_2)">
    <!-- #region background  -->
    <rect width="896" height="288" fill="url(#paint0_linear_1_2)"/>
    <mask id="mask0_1_2" style="mask-type: alpha" maskUnits="userSpaceOnUse" x="0" y="0" width="896" height="288">
      <rect width="896" height="288" fill="url(#paint1_linear_1_2)"/>
    </mask>
    <g mask="url(#mask0_1_2)">
      <path d="M32.5001 0L32.5001 288M64.5001 0L64.5001 288M96.5001 0L96.5001 288M128.5 0L128.5 288M160.5 0L160.5 288M192.5 0L192.5 288M224.5 0L224.5 288M256.5 0V288M288.5 0V288M320.5 0V288M352.5 0V288M384.5 0V288M416.5 0V288M448.5 0V288M480.5 0V288M512.5 0V288M544.5 0V288M576.5 0V288M608.5 0V288M640.5 0V288M672.5 0V288M704.5 0V288M736.5 0V288M768.5 0V288M800.5 0V288M832.5 0V288M864.5 0V288M0 31.5H896M0 63.5H896M0 95.5H896M0 127.5H896M0 159.5H896M0 191.5H896M0 223.5H896M0 255.5H896" stroke="black" stroke-opacity="0.07" stroke-dasharray="5 5"/>
    </g>
    <!-- #endregion -->

    <!-- #region title -->
    <g class="animate-fade-in-bottom title">
      <path xmlns="http://www.w3.org/2000/svg" d="M189.912 102.072V147H178.968V102.072H189.912ZM200.339 102.072H211.539L204.371 119.224H197.011L200.339 102.072ZM263.536 110.904C267.973 110.904 271.493 112.248 274.096 114.936C276.741 117.624 278.064 121.357 278.064 126.136V147H267.184V127.608C267.184 125.304 266.565 123.533 265.328 122.296C264.133 121.016 262.469 120.376 260.336 120.376C258.203 120.376 256.517 121.016 255.28 122.296C254.085 123.533 253.488 125.304 253.488 127.608V147H242.608V127.608C242.608 125.304 241.989 123.533 240.752 122.296C239.557 121.016 237.893 120.376 235.76 120.376C233.627 120.376 231.941 121.016 230.704 122.296C229.509 123.533 228.912 125.304 228.912 127.608V147H217.968V111.288H228.912V115.768C230.021 114.275 231.472 113.101 233.264 112.248C235.056 111.352 237.083 110.904 239.344 110.904C242.032 110.904 244.421 111.48 246.512 112.632C248.645 113.784 250.309 115.427 251.504 117.56C252.741 115.597 254.427 113.997 256.56 112.76C258.693 111.523 261.019 110.904 263.536 110.904ZM509.787 138.552H524.123V147H498.843V102.072H509.787V138.552ZM563.007 128.568C563.007 129.592 562.943 130.659 562.815 131.768H538.047C538.218 133.987 538.922 135.693 540.159 136.888C541.439 138.04 542.996 138.616 544.831 138.616C547.562 138.616 549.46 137.464 550.527 135.16H562.175C561.578 137.507 560.49 139.619 558.911 141.496C557.375 143.373 555.434 144.845 553.087 145.912C550.74 146.979 548.116 147.512 545.215 147.512C541.716 147.512 538.602 146.765 535.871 145.272C533.14 143.779 531.007 141.645 529.471 138.872C527.935 136.099 527.167 132.856 527.167 129.144C527.167 125.432 527.914 122.189 529.407 119.416C530.943 116.643 533.076 114.509 535.807 113.016C538.538 111.523 541.674 110.776 545.215 110.776C548.671 110.776 551.743 111.501 554.431 112.952C557.119 114.403 559.21 116.472 560.703 119.16C562.239 121.848 563.007 124.984 563.007 128.568ZM551.807 125.688C551.807 123.811 551.167 122.317 549.887 121.208C548.607 120.099 547.007 119.544 545.087 119.544C543.252 119.544 541.695 120.077 540.415 121.144C539.178 122.211 538.41 123.725 538.111 125.688H551.807ZM583.309 147.512C580.194 147.512 577.421 146.979 574.989 145.912C572.557 144.845 570.637 143.395 569.229 141.56C567.821 139.683 567.031 137.592 566.861 135.288H577.677C577.805 136.525 578.381 137.528 579.405 138.296C580.429 139.064 581.687 139.448 583.181 139.448C584.546 139.448 585.591 139.192 586.317 138.68C587.085 138.125 587.469 137.421 587.469 136.568C587.469 135.544 586.935 134.797 585.869 134.328C584.802 133.816 583.074 133.261 580.685 132.664C578.125 132.067 575.991 131.448 574.285 130.808C572.578 130.125 571.106 129.08 569.869 127.672C568.631 126.221 568.013 124.28 568.013 121.848C568.013 119.8 568.567 117.944 569.677 116.28C570.829 114.573 572.493 113.229 574.669 112.248C576.887 111.267 579.511 110.776 582.541 110.776C587.021 110.776 590.541 111.885 593.101 114.104C595.703 116.323 597.197 119.267 597.581 122.936H587.469C587.298 121.699 586.743 120.717 585.805 119.992C584.909 119.267 583.714 118.904 582.221 118.904C580.941 118.904 579.959 119.16 579.277 119.672C578.594 120.141 578.253 120.803 578.253 121.656C578.253 122.68 578.786 123.448 579.853 123.96C580.962 124.472 582.669 124.984 584.973 125.496C587.618 126.179 589.773 126.861 591.437 127.544C593.101 128.184 594.551 129.251 595.789 130.744C597.069 132.195 597.73 134.157 597.773 136.632C597.773 138.723 597.175 140.6 595.981 142.264C594.829 143.885 593.143 145.165 590.925 146.104C588.749 147.043 586.21 147.512 583.309 147.512ZM624.372 137.72V147H618.804C614.836 147 611.743 146.04 609.524 144.12C607.305 142.157 606.196 138.979 606.196 134.584V120.376H601.844V111.288H606.196V102.584H617.14V111.288H624.308V120.376H617.14V134.712C617.14 135.779 617.396 136.547 617.908 137.016C618.42 137.485 619.273 137.72 620.468 137.72H624.372ZM628.292 129.08C628.292 125.411 628.975 122.189 630.34 119.416C631.748 116.643 633.647 114.509 636.036 113.016C638.425 111.523 641.092 110.776 644.036 110.776C646.553 110.776 648.751 111.288 650.628 112.312C652.548 113.336 654.02 114.68 655.044 116.344V111.288H665.988V147H655.044V141.944C653.977 143.608 652.484 144.952 650.564 145.976C648.687 147 646.489 147.512 643.972 147.512C641.071 147.512 638.425 146.765 636.036 145.272C633.647 143.736 631.748 141.581 630.34 138.808C628.975 135.992 628.292 132.749 628.292 129.08ZM655.044 129.144C655.044 126.413 654.276 124.259 652.74 122.68C651.247 121.101 649.412 120.312 647.236 120.312C645.06 120.312 643.204 121.101 641.668 122.68C640.175 124.216 639.428 126.349 639.428 129.08C639.428 131.811 640.175 133.987 641.668 135.608C643.204 137.187 645.06 137.976 647.236 137.976C649.412 137.976 651.247 137.187 652.74 135.608C654.276 134.029 655.044 131.875 655.044 129.144ZM684.85 117.24C686.13 115.277 687.73 113.741 689.65 112.632C691.57 111.48 693.703 110.904 696.05 110.904V122.488H693.042C690.311 122.488 688.263 123.085 686.898 124.28C685.532 125.432 684.85 127.48 684.85 130.424V147H673.906V111.288H684.85V117.24ZM706.785 107.576C704.865 107.576 703.286 107.021 702.049 105.912C700.854 104.76 700.257 103.352 700.257 101.688C700.257 99.9813 700.854 98.5733 702.049 97.464C703.286 96.312 704.865 95.736 706.785 95.736C708.662 95.736 710.198 96.312 711.393 97.464C712.63 98.5733 713.249 99.9813 713.249 101.688C713.249 103.352 712.63 104.76 711.393 105.912C710.198 107.021 708.662 107.576 706.785 107.576ZM712.225 111.288V147H701.281V111.288H712.225Z" fill="#334155"/>
      <path xmlns="http://www.w3.org/2000/svg" d="M322.193 147L312.849 130.04H310.225V147H299.281V102.072H317.649C321.19 102.072 324.198 102.691 326.673 103.928C329.19 105.165 331.067 106.872 332.305 109.048C333.542 111.181 334.161 113.571 334.161 116.216C334.161 119.203 333.307 121.869 331.601 124.216C329.937 126.563 327.462 128.227 324.177 129.208L334.545 147H322.193ZM310.225 122.296H317.009C319.014 122.296 320.507 121.805 321.489 120.824C322.513 119.843 323.025 118.456 323.025 116.664C323.025 114.957 322.513 113.613 321.489 112.632C320.507 111.651 319.014 111.16 317.009 111.16H310.225V122.296ZM374.694 128.568C374.694 129.592 374.631 130.659 374.503 131.768H349.735C349.905 133.987 350.609 135.693 351.847 136.888C353.127 138.04 354.684 138.616 356.519 138.616C359.249 138.616 361.148 137.464 362.215 135.16H373.863C373.265 137.507 372.177 139.619 370.599 141.496C369.063 143.373 367.121 144.845 364.775 145.912C362.428 146.979 359.804 147.512 356.903 147.512C353.404 147.512 350.289 146.765 347.559 145.272C344.828 143.779 342.695 141.645 341.159 138.872C339.623 136.099 338.855 132.856 338.855 129.144C338.855 125.432 339.601 122.189 341.095 119.416C342.631 116.643 344.764 114.509 347.495 113.016C350.225 111.523 353.361 110.776 356.903 110.776C360.359 110.776 363.431 111.501 366.119 112.952C368.807 114.403 370.897 116.472 372.391 119.16C373.927 121.848 374.694 124.984 374.694 128.568ZM363.495 125.688C363.495 123.811 362.855 122.317 361.575 121.208C360.295 120.099 358.695 119.544 356.775 119.544C354.94 119.544 353.383 120.077 352.103 121.144C350.865 122.211 350.097 123.725 349.799 125.688H363.495ZM394.996 147.512C391.881 147.512 389.108 146.979 386.676 145.912C384.244 144.845 382.324 143.395 380.916 141.56C379.508 139.683 378.719 137.592 378.548 135.288H389.364C389.492 136.525 390.068 137.528 391.092 138.296C392.116 139.064 393.375 139.448 394.868 139.448C396.233 139.448 397.279 139.192 398.004 138.68C398.772 138.125 399.156 137.421 399.156 136.568C399.156 135.544 398.623 134.797 397.556 134.328C396.489 133.816 394.761 133.261 392.372 132.664C389.812 132.067 387.679 131.448 385.972 130.808C384.265 130.125 382.793 129.08 381.556 127.672C380.319 126.221 379.7 124.28 379.7 121.848C379.7 119.8 380.255 117.944 381.364 116.28C382.516 114.573 384.18 113.229 386.356 112.248C388.575 111.267 391.199 110.776 394.228 110.776C398.708 110.776 402.228 111.885 404.788 114.104C407.391 116.323 408.884 119.267 409.268 122.936H399.156C398.985 121.699 398.431 120.717 397.492 119.992C396.596 119.267 395.401 118.904 393.908 118.904C392.628 118.904 391.647 119.16 390.964 119.672C390.281 120.141 389.94 120.803 389.94 121.656C389.94 122.68 390.473 123.448 391.54 123.96C392.649 124.472 394.356 124.984 396.66 125.496C399.305 126.179 401.46 126.861 403.124 127.544C404.788 128.184 406.239 129.251 407.476 130.744C408.756 132.195 409.417 134.157 409.46 136.632C409.46 138.723 408.863 140.6 407.668 142.264C406.516 143.885 404.831 145.165 402.612 146.104C400.436 147.043 397.897 147.512 394.996 147.512ZM436.06 137.72V147H430.492C426.524 147 423.43 146.04 421.212 144.12C418.993 142.157 417.884 138.979 417.884 134.584V120.376H413.532V111.288H417.884V102.584H428.828V111.288H435.996V120.376H428.828V134.712C428.828 135.779 429.084 136.547 429.596 137.016C430.108 137.485 430.961 137.72 432.156 137.72H436.06ZM477.42 111.288V147H466.476V142.136C465.366 143.715 463.852 144.995 461.932 145.976C460.054 146.915 457.964 147.384 455.66 147.384C452.929 147.384 450.518 146.787 448.428 145.592C446.337 144.355 444.716 142.584 443.564 140.28C442.412 137.976 441.836 135.267 441.836 132.152V111.288H452.716V130.68C452.716 133.069 453.334 134.925 454.572 136.248C455.809 137.571 457.473 138.232 459.564 138.232C461.697 138.232 463.382 137.571 464.62 136.248C465.857 134.925 466.476 133.069 466.476 130.68V111.288H477.42Z" fill="#7733FF"/>
    </g>
    <!-- #endregion -->

    <!-- #region description -->
    <g class="animate-fade-in-bottom description">
      <path xmlns="http://www.w3.org/2000/svg" d="M229.688 171.848V183H228.232V171.848H229.688ZM236.442 174.072C237.508 174.072 238.372 174.397 239.034 175.048C239.695 175.688 240.026 176.616 240.026 177.832V183H238.586V178.04C238.586 177.165 238.367 176.499 237.93 176.04C237.492 175.571 236.895 175.336 236.138 175.336C235.37 175.336 234.756 175.576 234.298 176.056C233.85 176.536 233.626 177.235 233.626 178.152V183H232.17V174.232H233.626V175.48C233.914 175.032 234.303 174.685 234.794 174.44C235.295 174.195 235.844 174.072 236.442 174.072ZM245.972 175.432H244.132V183H242.676V175.432H241.54V174.232H242.676V173.608C242.676 172.627 242.927 171.912 243.428 171.464C243.94 171.005 244.756 170.776 245.876 170.776V171.992C245.236 171.992 244.783 172.12 244.516 172.376C244.26 172.621 244.132 173.032 244.132 173.608V174.232H245.972V175.432ZM251.494 183.144C250.672 183.144 249.926 182.957 249.254 182.584C248.592 182.211 248.07 181.683 247.686 181C247.312 180.307 247.126 179.507 247.126 178.6C247.126 177.704 247.318 176.915 247.702 176.232C248.096 175.539 248.63 175.011 249.302 174.648C249.974 174.275 250.726 174.088 251.558 174.088C252.39 174.088 253.142 174.275 253.814 174.648C254.486 175.011 255.014 175.533 255.398 176.216C255.792 176.899 255.99 177.693 255.99 178.6C255.99 179.507 255.787 180.307 255.382 181C254.987 181.683 254.448 182.211 253.766 182.584C253.083 182.957 252.326 183.144 251.494 183.144ZM251.494 181.864C252.016 181.864 252.507 181.741 252.966 181.496C253.424 181.251 253.792 180.883 254.07 180.392C254.358 179.901 254.502 179.304 254.502 178.6C254.502 177.896 254.363 177.299 254.086 176.808C253.808 176.317 253.446 175.955 252.998 175.72C252.55 175.475 252.064 175.352 251.542 175.352C251.008 175.352 250.518 175.475 250.07 175.72C249.632 175.955 249.28 176.317 249.014 176.808C248.747 177.299 248.614 177.896 248.614 178.6C248.614 179.315 248.742 179.917 248.998 180.408C249.264 180.899 249.616 181.267 250.054 181.512C250.491 181.747 250.971 181.864 251.494 181.864ZM259.36 175.656C259.616 175.155 259.979 174.765 260.448 174.488C260.928 174.211 261.509 174.072 262.192 174.072V175.576H261.808C260.176 175.576 259.36 176.461 259.36 178.232V183H257.904V174.232H259.36V175.656ZM274.417 174.072C275.099 174.072 275.707 174.216 276.241 174.504C276.774 174.781 277.195 175.203 277.505 175.768C277.814 176.333 277.969 177.021 277.969 177.832V183H276.529V178.04C276.529 177.165 276.31 176.499 275.873 176.04C275.446 175.571 274.865 175.336 274.129 175.336C273.371 175.336 272.769 175.581 272.321 176.072C271.873 176.552 271.649 177.251 271.649 178.168V183H270.209V178.04C270.209 177.165 269.99 176.499 269.553 176.04C269.126 175.571 268.545 175.336 267.809 175.336C267.051 175.336 266.449 175.581 266.001 176.072C265.553 176.552 265.329 177.251 265.329 178.168V183H263.873V174.232H265.329V175.496C265.617 175.037 266.001 174.685 266.481 174.44C266.971 174.195 267.51 174.072 268.097 174.072C268.833 174.072 269.483 174.237 270.049 174.568C270.614 174.899 271.035 175.384 271.313 176.024C271.558 175.405 271.963 174.925 272.529 174.584C273.094 174.243 273.723 174.072 274.417 174.072ZM279.813 178.584C279.813 177.688 279.994 176.904 280.357 176.232C280.72 175.549 281.216 175.021 281.845 174.648C282.485 174.275 283.194 174.088 283.973 174.088C284.741 174.088 285.408 174.253 285.973 174.584C286.538 174.915 286.96 175.331 287.237 175.832V174.232H288.709V183H287.237V181.368C286.949 181.88 286.517 182.307 285.941 182.648C285.376 182.979 284.714 183.144 283.957 183.144C283.178 183.144 282.474 182.952 281.845 182.568C281.216 182.184 280.72 181.645 280.357 180.952C279.994 180.259 279.813 179.469 279.813 178.584ZM287.237 178.6C287.237 177.939 287.104 177.363 286.837 176.872C286.57 176.381 286.208 176.008 285.749 175.752C285.301 175.485 284.805 175.352 284.261 175.352C283.717 175.352 283.221 175.48 282.773 175.736C282.325 175.992 281.968 176.365 281.701 176.856C281.434 177.347 281.301 177.923 281.301 178.584C281.301 179.256 281.434 179.843 281.701 180.344C281.968 180.835 282.325 181.213 282.773 181.48C283.221 181.736 283.717 181.864 284.261 181.864C284.805 181.864 285.301 181.736 285.749 181.48C286.208 181.213 286.57 180.835 286.837 180.344C287.104 179.843 287.237 179.261 287.237 178.6ZM292.946 175.432V180.6C292.946 181.027 293.036 181.331 293.218 181.512C293.399 181.683 293.714 181.768 294.161 181.768H295.234V183H293.922C293.111 183 292.503 182.813 292.098 182.44C291.692 182.067 291.49 181.453 291.49 180.6V175.432H290.354V174.232H291.49V172.024H292.946V174.232H295.234V175.432H292.946ZM297.75 172.808C297.472 172.808 297.238 172.712 297.046 172.52C296.854 172.328 296.758 172.093 296.758 171.816C296.758 171.539 296.854 171.304 297.046 171.112C297.238 170.92 297.472 170.824 297.75 170.824C298.016 170.824 298.24 170.92 298.422 171.112C298.614 171.304 298.71 171.539 298.71 171.816C298.71 172.093 298.614 172.328 298.422 172.52C298.24 172.712 298.016 172.808 297.75 172.808ZM298.454 174.232V183H296.998V174.232H298.454ZM300.391 178.6C300.391 177.693 300.572 176.904 300.935 176.232C301.298 175.549 301.799 175.021 302.439 174.648C303.09 174.275 303.831 174.088 304.663 174.088C305.74 174.088 306.626 174.349 307.319 174.872C308.023 175.395 308.487 176.12 308.711 177.048H307.143C306.994 176.515 306.7 176.093 306.263 175.784C305.836 175.475 305.303 175.32 304.663 175.32C303.831 175.32 303.159 175.608 302.647 176.184C302.135 176.749 301.879 177.555 301.879 178.6C301.879 179.656 302.135 180.472 302.647 181.048C303.159 181.624 303.831 181.912 304.663 181.912C305.303 181.912 305.836 181.763 306.263 181.464C306.69 181.165 306.983 180.739 307.143 180.184H308.711C308.476 181.08 308.007 181.8 307.303 182.344C306.599 182.877 305.719 183.144 304.663 183.144C303.831 183.144 303.09 182.957 302.439 182.584C301.799 182.211 301.298 181.683 300.935 181C300.572 180.317 300.391 179.517 300.391 178.6ZM313.758 183.144C313.086 183.144 312.483 183.032 311.95 182.808C311.417 182.573 310.995 182.253 310.686 181.848C310.377 181.432 310.206 180.957 310.174 180.424H311.678C311.721 180.861 311.923 181.219 312.286 181.496C312.659 181.773 313.145 181.912 313.742 181.912C314.297 181.912 314.734 181.789 315.054 181.544C315.374 181.299 315.534 180.989 315.534 180.616C315.534 180.232 315.363 179.949 315.022 179.768C314.681 179.576 314.153 179.389 313.438 179.208C312.787 179.037 312.254 178.867 311.838 178.696C311.433 178.515 311.081 178.253 310.782 177.912C310.494 177.56 310.35 177.101 310.35 176.536C310.35 176.088 310.483 175.677 310.75 175.304C311.017 174.931 311.395 174.637 311.886 174.424C312.377 174.2 312.937 174.088 313.566 174.088C314.537 174.088 315.321 174.333 315.918 174.824C316.515 175.315 316.835 175.987 316.878 176.84H315.422C315.39 176.381 315.203 176.013 314.862 175.736C314.531 175.459 314.083 175.32 313.518 175.32C312.995 175.32 312.579 175.432 312.27 175.656C311.961 175.88 311.806 176.173 311.806 176.536C311.806 176.824 311.897 177.064 312.078 177.256C312.27 177.437 312.505 177.587 312.782 177.704C313.07 177.811 313.465 177.933 313.966 178.072C314.595 178.243 315.107 178.413 315.502 178.584C315.897 178.744 316.233 178.989 316.51 179.32C316.798 179.651 316.947 180.083 316.958 180.616C316.958 181.096 316.825 181.528 316.558 181.912C316.291 182.296 315.913 182.6 315.422 182.824C314.942 183.037 314.387 183.144 313.758 183.144ZM324.735 173.032V176.76H328.799V177.96H324.735V181.8H329.279V183H323.279V171.832H329.279V173.032H324.735ZM335.754 174.072C336.821 174.072 337.685 174.397 338.346 175.048C339.007 175.688 339.338 176.616 339.338 177.832V183H337.898V178.04C337.898 177.165 337.679 176.499 337.242 176.04C336.805 175.571 336.207 175.336 335.45 175.336C334.682 175.336 334.069 175.576 333.61 176.056C333.162 176.536 332.938 177.235 332.938 178.152V183H331.482V174.232H332.938V175.48C333.226 175.032 333.615 174.685 334.106 174.44C334.607 174.195 335.157 174.072 335.754 174.072ZM345.332 174.088C346.09 174.088 346.751 174.253 347.316 174.584C347.892 174.915 348.319 175.331 348.596 175.832V174.232H350.068V183.192C350.068 183.992 349.898 184.701 349.556 185.32C349.215 185.949 348.724 186.44 348.084 186.792C347.455 187.144 346.719 187.32 345.876 187.32C344.724 187.32 343.764 187.048 342.996 186.504C342.228 185.96 341.775 185.219 341.636 184.28H343.076C343.236 184.813 343.567 185.24 344.068 185.56C344.57 185.891 345.172 186.056 345.876 186.056C346.676 186.056 347.327 185.805 347.828 185.304C348.34 184.803 348.596 184.099 348.596 183.192V181.352C348.308 181.864 347.882 182.291 347.316 182.632C346.751 182.973 346.09 183.144 345.332 183.144C344.554 183.144 343.844 182.952 343.204 182.568C342.575 182.184 342.079 181.645 341.716 180.952C341.354 180.259 341.172 179.469 341.172 178.584C341.172 177.688 341.354 176.904 341.716 176.232C342.079 175.549 342.575 175.021 343.204 174.648C343.844 174.275 344.554 174.088 345.332 174.088ZM348.596 178.6C348.596 177.939 348.463 177.363 348.196 176.872C347.93 176.381 347.567 176.008 347.108 175.752C346.66 175.485 346.164 175.352 345.62 175.352C345.076 175.352 344.58 175.48 344.132 175.736C343.684 175.992 343.327 176.365 343.06 176.856C342.794 177.347 342.66 177.923 342.66 178.584C342.66 179.256 342.794 179.843 343.06 180.344C343.327 180.835 343.684 181.213 344.132 181.48C344.58 181.736 345.076 181.864 345.62 181.864C346.164 181.864 346.66 181.736 347.108 181.48C347.567 181.213 347.93 180.835 348.196 180.344C348.463 179.843 348.596 179.261 348.596 178.6ZM353.281 172.808C353.004 172.808 352.769 172.712 352.577 172.52C352.385 172.328 352.289 172.093 352.289 171.816C352.289 171.539 352.385 171.304 352.577 171.112C352.769 170.92 353.004 170.824 353.281 170.824C353.548 170.824 353.772 170.92 353.953 171.112C354.145 171.304 354.241 171.539 354.241 171.816C354.241 172.093 354.145 172.328 353.953 172.52C353.772 172.712 353.548 172.808 353.281 172.808ZM353.985 174.232V183H352.529V174.232H353.985ZM360.738 174.072C361.805 174.072 362.669 174.397 363.33 175.048C363.992 175.688 364.322 176.616 364.322 177.832V183H362.882V178.04C362.882 177.165 362.664 176.499 362.226 176.04C361.789 175.571 361.192 175.336 360.434 175.336C359.666 175.336 359.053 175.576 358.594 176.056C358.146 176.536 357.922 177.235 357.922 178.152V183H356.466V174.232H357.922V175.48C358.21 175.032 358.6 174.685 359.09 174.44C359.592 174.195 360.141 174.072 360.738 174.072ZM374.701 178.28C374.701 178.557 374.685 178.851 374.653 179.16H367.645C367.698 180.024 367.991 180.701 368.525 181.192C369.069 181.672 369.725 181.912 370.493 181.912C371.122 181.912 371.645 181.768 372.061 181.48C372.487 181.181 372.786 180.787 372.957 180.296H374.525C374.29 181.139 373.821 181.827 373.117 182.36C372.413 182.883 371.538 183.144 370.493 183.144C369.661 183.144 368.914 182.957 368.253 182.584C367.602 182.211 367.09 181.683 366.717 181C366.343 180.307 366.157 179.507 366.157 178.6C366.157 177.693 366.338 176.899 366.701 176.216C367.063 175.533 367.57 175.011 368.221 174.648C368.882 174.275 369.639 174.088 370.493 174.088C371.325 174.088 372.061 174.269 372.701 174.632C373.341 174.995 373.831 175.496 374.173 176.136C374.525 176.765 374.701 177.48 374.701 178.28ZM373.197 177.976C373.197 177.421 373.074 176.947 372.829 176.552C372.583 176.147 372.247 175.843 371.821 175.64C371.405 175.427 370.941 175.32 370.429 175.32C369.693 175.32 369.063 175.555 368.541 176.024C368.029 176.493 367.735 177.144 367.661 177.976H373.197ZM384.623 178.28C384.623 178.557 384.607 178.851 384.575 179.16H377.567C377.62 180.024 377.913 180.701 378.447 181.192C378.991 181.672 379.647 181.912 380.415 181.912C381.044 181.912 381.567 181.768 381.983 181.48C382.409 181.181 382.708 180.787 382.879 180.296H384.447C384.212 181.139 383.743 181.827 383.039 182.36C382.335 182.883 381.46 183.144 380.415 183.144C379.583 183.144 378.836 182.957 378.175 182.584C377.524 182.211 377.012 181.683 376.639 181C376.265 180.307 376.079 179.507 376.079 178.6C376.079 177.693 376.26 176.899 376.623 176.216C376.985 175.533 377.492 175.011 378.143 174.648C378.804 174.275 379.561 174.088 380.415 174.088C381.247 174.088 381.983 174.269 382.623 174.632C383.263 174.995 383.753 175.496 384.095 176.136C384.447 176.765 384.623 177.48 384.623 178.28ZM383.119 177.976C383.119 177.421 382.996 176.947 382.751 176.552C382.505 176.147 382.169 175.843 381.743 175.64C381.327 175.427 380.863 175.32 380.351 175.32C379.615 175.32 378.985 175.555 378.463 176.024C377.951 176.493 377.657 177.144 377.583 177.976H383.119ZM388.001 175.656C388.257 175.155 388.619 174.765 389.089 174.488C389.569 174.211 390.15 174.072 390.833 174.072V175.576H390.449C388.817 175.576 388.001 176.461 388.001 178.232V183H386.545V174.232H388.001V175.656ZM393.265 172.808C392.988 172.808 392.753 172.712 392.561 172.52C392.369 172.328 392.273 172.093 392.273 171.816C392.273 171.539 392.369 171.304 392.561 171.112C392.753 170.92 392.988 170.824 393.265 170.824C393.532 170.824 393.756 170.92 393.937 171.112C394.129 171.304 394.225 171.539 394.225 171.816C394.225 172.093 394.129 172.328 393.937 172.52C393.756 172.712 393.532 172.808 393.265 172.808ZM393.969 174.232V183H392.513V174.232H393.969ZM400.723 174.072C401.789 174.072 402.653 174.397 403.315 175.048C403.976 175.688 404.307 176.616 404.307 177.832V183H402.867V178.04C402.867 177.165 402.648 176.499 402.211 176.04C401.773 175.571 401.176 175.336 400.419 175.336C399.651 175.336 399.037 175.576 398.579 176.056C398.131 176.536 397.907 177.235 397.907 178.152V183H396.451V174.232H397.907V175.48C398.195 175.032 398.584 174.685 399.075 174.44C399.576 174.195 400.125 174.072 400.723 174.072ZM410.301 174.088C411.058 174.088 411.72 174.253 412.285 174.584C412.861 174.915 413.288 175.331 413.565 175.832V174.232H415.037V183.192C415.037 183.992 414.866 184.701 414.525 185.32C414.184 185.949 413.693 186.44 413.053 186.792C412.424 187.144 411.688 187.32 410.845 187.32C409.693 187.32 408.733 187.048 407.965 186.504C407.197 185.96 406.744 185.219 406.605 184.28H408.045C408.205 184.813 408.536 185.24 409.037 185.56C409.538 185.891 410.141 186.056 410.845 186.056C411.645 186.056 412.296 185.805 412.797 185.304C413.309 184.803 413.565 184.099 413.565 183.192V181.352C413.277 181.864 412.85 182.291 412.285 182.632C411.72 182.973 411.058 183.144 410.301 183.144C409.522 183.144 408.813 182.952 408.173 182.568C407.544 182.184 407.048 181.645 406.685 180.952C406.322 180.259 406.141 179.469 406.141 178.584C406.141 177.688 406.322 176.904 406.685 176.232C407.048 175.549 407.544 175.021 408.173 174.648C408.813 174.275 409.522 174.088 410.301 174.088ZM413.565 178.6C413.565 177.939 413.432 177.363 413.165 176.872C412.898 176.381 412.536 176.008 412.077 175.752C411.629 175.485 411.133 175.352 410.589 175.352C410.045 175.352 409.549 175.48 409.101 175.736C408.653 175.992 408.296 176.365 408.029 176.856C407.762 177.347 407.629 177.923 407.629 178.584C407.629 179.256 407.762 179.843 408.029 180.344C408.296 180.835 408.653 181.213 409.101 181.48C409.549 181.736 410.045 181.864 410.589 181.864C411.133 181.864 411.629 181.736 412.077 181.48C412.536 181.213 412.898 180.835 413.165 180.344C413.432 179.843 413.565 179.261 413.565 178.6ZM425.299 183.112C424.563 183.112 423.902 182.984 423.315 182.728C422.739 182.461 422.286 182.099 421.955 181.64C421.625 181.171 421.454 180.632 421.443 180.024H422.995C423.049 180.547 423.262 180.989 423.635 181.352C424.019 181.704 424.574 181.88 425.299 181.88C425.993 181.88 426.537 181.709 426.931 181.368C427.337 181.016 427.539 180.568 427.539 180.024C427.539 179.597 427.422 179.251 427.187 178.984C426.953 178.717 426.659 178.515 426.307 178.376C425.955 178.237 425.481 178.088 424.883 177.928C424.147 177.736 423.555 177.544 423.107 177.352C422.67 177.16 422.291 176.861 421.971 176.456C421.662 176.04 421.507 175.485 421.507 174.792C421.507 174.184 421.662 173.645 421.971 173.176C422.281 172.707 422.713 172.344 423.267 172.088C423.833 171.832 424.478 171.704 425.203 171.704C426.249 171.704 427.102 171.965 427.763 172.488C428.435 173.011 428.814 173.704 428.899 174.568H427.299C427.246 174.141 427.022 173.768 426.627 173.448C426.233 173.117 425.71 172.952 425.059 172.952C424.451 172.952 423.955 173.112 423.571 173.432C423.187 173.741 422.995 174.179 422.995 174.744C422.995 175.149 423.107 175.48 423.331 175.736C423.566 175.992 423.849 176.189 424.179 176.328C424.521 176.456 424.995 176.605 425.603 176.776C426.339 176.979 426.931 177.181 427.379 177.384C427.827 177.576 428.211 177.88 428.531 178.296C428.851 178.701 429.011 179.256 429.011 179.96C429.011 180.504 428.867 181.016 428.579 181.496C428.291 181.976 427.865 182.365 427.299 182.664C426.734 182.963 426.067 183.112 425.299 183.112ZM432.93 175.432V180.6C432.93 181.027 433.021 181.331 433.202 181.512C433.383 181.683 433.698 181.768 434.146 181.768H435.218V183H433.906C433.095 183 432.487 182.813 432.082 182.44C431.677 182.067 431.474 181.453 431.474 180.6V175.432H430.338V174.232H431.474V172.024H432.93V174.232H435.218V175.432H432.93ZM444.758 174.232V183H443.302V181.704C443.025 182.152 442.635 182.504 442.134 182.76C441.643 183.005 441.099 183.128 440.502 183.128C439.819 183.128 439.206 182.989 438.662 182.712C438.118 182.424 437.686 181.997 437.366 181.432C437.057 180.867 436.902 180.179 436.902 179.368V174.232H438.342V179.176C438.342 180.04 438.561 180.707 438.998 181.176C439.435 181.635 440.033 181.864 440.79 181.864C441.569 181.864 442.182 181.624 442.63 181.144C443.078 180.664 443.302 179.965 443.302 179.048V174.232H444.758ZM446.672 178.584C446.672 177.688 446.854 176.904 447.216 176.232C447.579 175.549 448.075 175.021 448.704 174.648C449.344 174.275 450.059 174.088 450.848 174.088C451.531 174.088 452.166 174.248 452.752 174.568C453.339 174.877 453.787 175.288 454.096 175.8V171.16H455.568V183H454.096V181.352C453.808 181.875 453.382 182.307 452.816 182.648C452.251 182.979 451.59 183.144 450.832 183.144C450.054 183.144 449.344 182.952 448.704 182.568C448.075 182.184 447.579 181.645 447.216 180.952C446.854 180.259 446.672 179.469 446.672 178.584ZM454.096 178.6C454.096 177.939 453.963 177.363 453.696 176.872C453.43 176.381 453.067 176.008 452.608 175.752C452.16 175.485 451.664 175.352 451.12 175.352C450.576 175.352 450.08 175.48 449.632 175.736C449.184 175.992 448.827 176.365 448.56 176.856C448.294 177.347 448.16 177.923 448.16 178.584C448.16 179.256 448.294 179.843 448.56 180.344C448.827 180.835 449.184 181.213 449.632 181.48C450.08 181.736 450.576 181.864 451.12 181.864C451.664 181.864 452.16 181.736 452.608 181.48C453.067 181.213 453.43 180.835 453.696 180.344C453.963 179.843 454.096 179.261 454.096 178.6ZM466.029 178.28C466.029 178.557 466.013 178.851 465.981 179.16H458.973C459.026 180.024 459.32 180.701 459.853 181.192C460.397 181.672 461.053 181.912 461.821 181.912C462.45 181.912 462.973 181.768 463.389 181.48C463.816 181.181 464.114 180.787 464.285 180.296H465.853C465.618 181.139 465.149 181.827 464.445 182.36C463.741 182.883 462.866 183.144 461.821 183.144C460.989 183.144 460.242 182.957 459.581 182.584C458.93 182.211 458.418 181.683 458.045 181C457.672 180.307 457.485 179.507 457.485 178.6C457.485 177.693 457.666 176.899 458.029 176.216C458.392 175.533 458.898 175.011 459.549 174.648C460.21 174.275 460.968 174.088 461.821 174.088C462.653 174.088 463.389 174.269 464.029 174.632C464.669 174.995 465.16 175.496 465.501 176.136C465.853 176.765 466.029 177.48 466.029 178.28ZM464.525 177.976C464.525 177.421 464.402 176.947 464.157 176.552C463.912 176.147 463.576 175.843 463.149 175.64C462.733 175.427 462.269 175.32 461.757 175.32C461.021 175.32 460.392 175.555 459.869 176.024C459.357 176.493 459.064 177.144 458.989 177.976H464.525ZM472.223 174.072C473.289 174.072 474.153 174.397 474.815 175.048C475.476 175.688 475.807 176.616 475.807 177.832V183H474.367V178.04C474.367 177.165 474.148 176.499 473.711 176.04C473.273 175.571 472.676 175.336 471.919 175.336C471.151 175.336 470.537 175.576 470.079 176.056C469.631 176.536 469.407 177.235 469.407 178.152V183H467.951V174.232H469.407V175.48C469.695 175.032 470.084 174.685 470.575 174.44C471.076 174.195 471.625 174.072 472.223 174.072ZM479.961 175.432V180.6C479.961 181.027 480.052 181.331 480.233 181.512C480.414 181.683 480.729 181.768 481.177 181.768H482.249V183H480.937C480.126 183 479.518 182.813 479.113 182.44C478.708 182.067 478.505 181.453 478.505 180.6V175.432H477.369V174.232H478.505V172.024H479.961V174.232H482.249V175.432H479.961ZM487.117 183.144C486.445 183.144 485.843 183.032 485.309 182.808C484.776 182.573 484.355 182.253 484.045 181.848C483.736 181.432 483.565 180.957 483.533 180.424H485.037C485.08 180.861 485.283 181.219 485.645 181.496C486.019 181.773 486.504 181.912 487.101 181.912C487.656 181.912 488.093 181.789 488.413 181.544C488.733 181.299 488.893 180.989 488.893 180.616C488.893 180.232 488.723 179.949 488.381 179.768C488.04 179.576 487.512 179.389 486.797 179.208C486.147 179.037 485.613 178.867 485.197 178.696C484.792 178.515 484.44 178.253 484.141 177.912C483.853 177.56 483.709 177.101 483.709 176.536C483.709 176.088 483.843 175.677 484.109 175.304C484.376 174.931 484.755 174.637 485.245 174.424C485.736 174.2 486.296 174.088 486.925 174.088C487.896 174.088 488.68 174.333 489.277 174.824C489.875 175.315 490.195 175.987 490.237 176.84H488.781C488.749 176.381 488.563 176.013 488.221 175.736C487.891 175.459 487.443 175.32 486.877 175.32C486.355 175.32 485.939 175.432 485.629 175.656C485.32 175.88 485.165 176.173 485.165 176.536C485.165 176.824 485.256 177.064 485.437 177.256C485.629 177.437 485.864 177.587 486.141 177.704C486.429 177.811 486.824 177.933 487.325 178.072C487.955 178.243 488.467 178.413 488.861 178.584C489.256 178.744 489.592 178.989 489.869 179.32C490.157 179.651 490.307 180.083 490.317 180.616C490.317 181.096 490.184 181.528 489.917 181.912C489.651 182.296 489.272 182.6 488.781 182.824C488.301 183.037 487.747 183.144 487.117 183.144ZM497.15 178.536C496.873 178.536 496.638 178.44 496.446 178.248C496.254 178.056 496.158 177.821 496.158 177.544C496.158 177.267 496.254 177.032 496.446 176.84C496.638 176.648 496.873 176.552 497.15 176.552C497.417 176.552 497.641 176.648 497.822 176.84C498.014 177.032 498.11 177.267 498.11 177.544C498.11 177.821 498.014 178.056 497.822 178.248C497.641 178.44 497.417 178.536 497.15 178.536ZM510.599 171.848V173.032H505.751V176.792H509.687V177.976H505.751V183H504.295V171.848H510.599ZM513.813 175.656C514.069 175.155 514.432 174.765 514.901 174.488C515.381 174.211 515.962 174.072 516.645 174.072V175.576H516.261C514.629 175.576 513.813 176.461 513.813 178.232V183H512.357V174.232H513.813V175.656ZM522.15 183.144C521.328 183.144 520.582 182.957 519.91 182.584C519.248 182.211 518.726 181.683 518.342 181C517.968 180.307 517.782 179.507 517.782 178.6C517.782 177.704 517.974 176.915 518.358 176.232C518.752 175.539 519.286 175.011 519.958 174.648C520.63 174.275 521.382 174.088 522.214 174.088C523.046 174.088 523.798 174.275 524.47 174.648C525.142 175.011 525.67 175.533 526.054 176.216C526.448 176.899 526.646 177.693 526.646 178.6C526.646 179.507 526.443 180.307 526.038 181C525.643 181.683 525.104 182.211 524.422 182.584C523.739 182.957 522.982 183.144 522.15 183.144ZM522.15 181.864C522.672 181.864 523.163 181.741 523.622 181.496C524.08 181.251 524.448 180.883 524.726 180.392C525.014 179.901 525.158 179.304 525.158 178.6C525.158 177.896 525.019 177.299 524.742 176.808C524.464 176.317 524.102 175.955 523.654 175.72C523.206 175.475 522.72 175.352 522.198 175.352C521.664 175.352 521.174 175.475 520.726 175.72C520.288 175.955 519.936 176.317 519.67 176.808C519.403 177.299 519.27 177.896 519.27 178.6C519.27 179.315 519.398 179.917 519.654 180.408C519.92 180.899 520.272 181.267 520.71 181.512C521.147 181.747 521.627 181.864 522.15 181.864ZM532.832 174.072C533.899 174.072 534.763 174.397 535.424 175.048C536.085 175.688 536.416 176.616 536.416 177.832V183H534.976V178.04C534.976 177.165 534.757 176.499 534.32 176.04C533.883 175.571 533.285 175.336 532.528 175.336C531.76 175.336 531.147 175.576 530.688 176.056C530.24 176.536 530.016 177.235 530.016 178.152V183H528.56V174.232H530.016V175.48C530.304 175.032 530.693 174.685 531.184 174.44C531.685 174.195 532.235 174.072 532.832 174.072ZM540.571 175.432V180.6C540.571 181.027 540.661 181.331 540.843 181.512C541.024 181.683 541.339 181.768 541.786 181.768H542.859V183H541.547C540.736 183 540.128 182.813 539.723 182.44C539.317 182.067 539.115 181.453 539.115 180.6V175.432H537.979V174.232H539.115V172.024H540.571V174.232H542.859V175.432H540.571ZM550.703 176.52V177.752H544.319V176.52H550.703ZM554.891 173.032V176.76H558.955V177.96H554.891V181.8H559.435V183H553.435V171.832H559.435V173.032H554.891ZM565.91 174.072C566.977 174.072 567.841 174.397 568.502 175.048C569.164 175.688 569.494 176.616 569.494 177.832V183H568.054V178.04C568.054 177.165 567.836 176.499 567.398 176.04C566.961 175.571 566.364 175.336 565.606 175.336C564.838 175.336 564.225 175.576 563.766 176.056C563.318 176.536 563.094 177.235 563.094 178.152V183H561.638V174.232H563.094V175.48C563.382 175.032 563.772 174.685 564.262 174.44C564.764 174.195 565.313 174.072 565.91 174.072ZM571.329 178.584C571.329 177.688 571.51 176.904 571.873 176.232C572.235 175.549 572.731 175.021 573.361 174.648C574.001 174.275 574.715 174.088 575.505 174.088C576.187 174.088 576.822 174.248 577.409 174.568C577.995 174.877 578.443 175.288 578.753 175.8V171.16H580.225V183H578.753V181.352C578.465 181.875 578.038 182.307 577.473 182.648C576.907 182.979 576.246 183.144 575.489 183.144C574.71 183.144 574.001 182.952 573.361 182.568C572.731 182.184 572.235 181.645 571.873 180.952C571.51 180.259 571.329 179.469 571.329 178.584ZM578.753 178.6C578.753 177.939 578.619 177.363 578.353 176.872C578.086 176.381 577.723 176.008 577.265 175.752C576.817 175.485 576.321 175.352 575.777 175.352C575.233 175.352 574.737 175.48 574.289 175.736C573.841 175.992 573.483 176.365 573.217 176.856C572.95 177.347 572.817 177.923 572.817 178.584C572.817 179.256 572.95 179.843 573.217 180.344C573.483 180.835 573.841 181.213 574.289 181.48C574.737 181.736 575.233 181.864 575.777 181.864C576.321 181.864 576.817 181.736 577.265 181.48C577.723 181.213 578.086 180.835 578.353 180.344C578.619 179.843 578.753 179.261 578.753 178.6ZM588.407 173.032V176.76H592.471V177.96H588.407V181.8H592.951V183H586.951V171.832H592.951V173.032H588.407ZM599.426 174.072C600.493 174.072 601.357 174.397 602.018 175.048C602.679 175.688 603.01 176.616 603.01 177.832V183H601.57V178.04C601.57 177.165 601.351 176.499 600.914 176.04C600.477 175.571 599.879 175.336 599.122 175.336C598.354 175.336 597.741 175.576 597.282 176.056C596.834 176.536 596.61 177.235 596.61 178.152V183H595.154V174.232H596.61V175.48C596.898 175.032 597.287 174.685 597.778 174.44C598.279 174.195 598.829 174.072 599.426 174.072ZM607.164 175.432V180.6C607.164 181.027 607.255 181.331 607.436 181.512C607.618 181.683 607.932 181.768 608.38 181.768H609.452V183H608.14C607.33 183 606.722 182.813 606.316 182.44C605.911 182.067 605.708 181.453 605.708 180.6V175.432H604.572V174.232H605.708V172.024H607.164V174.232H609.452V175.432H607.164ZM615.568 174.072C616.23 174.072 616.827 174.216 617.36 174.504C617.894 174.781 618.31 175.203 618.608 175.768C618.918 176.333 619.072 177.021 619.072 177.832V183H617.632V178.04C617.632 177.165 617.414 176.499 616.976 176.04C616.539 175.571 615.942 175.336 615.184 175.336C614.416 175.336 613.803 175.576 613.344 176.056C612.896 176.536 612.672 177.235 612.672 178.152V183H611.216V171.16H612.672V175.48C612.96 175.032 613.355 174.685 613.856 174.44C614.368 174.195 614.939 174.072 615.568 174.072ZM629.227 174.232V183H627.771V181.704C627.493 182.152 627.104 182.504 626.603 182.76C626.112 183.005 625.568 183.128 624.971 183.128C624.288 183.128 623.675 182.989 623.131 182.712C622.587 182.424 622.155 181.997 621.835 181.432C621.525 180.867 621.371 180.179 621.371 179.368V174.232H622.811V179.176C622.811 180.04 623.029 180.707 623.467 181.176C623.904 181.635 624.501 181.864 625.259 181.864C626.037 181.864 626.651 181.624 627.099 181.144C627.547 180.664 627.771 179.965 627.771 179.048V174.232H629.227ZM634.789 183.144C634.117 183.144 633.514 183.032 632.981 182.808C632.448 182.573 632.026 182.253 631.717 181.848C631.408 181.432 631.237 180.957 631.205 180.424H632.709C632.752 180.861 632.954 181.219 633.317 181.496C633.69 181.773 634.176 181.912 634.773 181.912C635.328 181.912 635.765 181.789 636.085 181.544C636.405 181.299 636.565 180.989 636.565 180.616C636.565 180.232 636.394 179.949 636.053 179.768C635.712 179.576 635.184 179.389 634.469 179.208C633.818 179.037 633.285 178.867 632.869 178.696C632.464 178.515 632.112 178.253 631.813 177.912C631.525 177.56 631.381 177.101 631.381 176.536C631.381 176.088 631.514 175.677 631.781 175.304C632.048 174.931 632.426 174.637 632.917 174.424C633.408 174.2 633.968 174.088 634.597 174.088C635.568 174.088 636.352 174.333 636.949 174.824C637.546 175.315 637.866 175.987 637.909 176.84H636.453C636.421 176.381 636.234 176.013 635.893 175.736C635.562 175.459 635.114 175.32 634.549 175.32C634.026 175.32 633.61 175.432 633.301 175.656C632.992 175.88 632.837 176.173 632.837 176.536C632.837 176.824 632.928 177.064 633.109 177.256C633.301 177.437 633.536 177.587 633.813 177.704C634.101 177.811 634.496 177.933 634.997 178.072C635.626 178.243 636.138 178.413 636.533 178.584C636.928 178.744 637.264 178.989 637.541 179.32C637.829 179.651 637.978 180.083 637.989 180.616C637.989 181.096 637.856 181.528 637.589 181.912C637.322 182.296 636.944 182.6 636.453 182.824C635.973 183.037 635.418 183.144 634.789 183.144ZM640.797 172.808C640.519 172.808 640.285 172.712 640.093 172.52C639.901 172.328 639.805 172.093 639.805 171.816C639.805 171.539 639.901 171.304 640.093 171.112C640.285 170.92 640.519 170.824 640.797 170.824C641.063 170.824 641.287 170.92 641.469 171.112C641.661 171.304 641.757 171.539 641.757 171.816C641.757 172.093 641.661 172.328 641.469 172.52C641.287 172.712 641.063 172.808 640.797 172.808ZM641.501 174.232V183H640.045V174.232H641.501ZM643.438 178.584C643.438 177.688 643.619 176.904 643.982 176.232C644.345 175.549 644.841 175.021 645.47 174.648C646.11 174.275 646.819 174.088 647.598 174.088C648.366 174.088 649.033 174.253 649.598 174.584C650.163 174.915 650.585 175.331 650.862 175.832V174.232H652.334V183H650.862V181.368C650.574 181.88 650.142 182.307 649.566 182.648C649.001 182.979 648.339 183.144 647.582 183.144C646.803 183.144 646.099 182.952 645.47 182.568C644.841 182.184 644.345 181.645 643.982 180.952C643.619 180.259 643.438 179.469 643.438 178.584ZM650.862 178.6C650.862 177.939 650.729 177.363 650.462 176.872C650.195 176.381 649.833 176.008 649.374 175.752C648.926 175.485 648.43 175.352 647.886 175.352C647.342 175.352 646.846 175.48 646.398 175.736C645.95 175.992 645.593 176.365 645.326 176.856C645.059 177.347 644.926 177.923 644.926 178.584C644.926 179.256 645.059 179.843 645.326 180.344C645.593 180.835 645.95 181.213 646.398 181.48C646.846 181.736 647.342 181.864 647.886 181.864C648.43 181.864 648.926 181.736 649.374 181.48C649.833 181.213 650.195 180.835 650.462 180.344C650.729 179.843 650.862 179.261 650.862 178.6ZM657.899 183.144C657.227 183.144 656.624 183.032 656.091 182.808C655.557 182.573 655.136 182.253 654.827 181.848C654.517 181.432 654.347 180.957 654.315 180.424H655.819C655.861 180.861 656.064 181.219 656.427 181.496C656.8 181.773 657.285 181.912 657.883 181.912C658.437 181.912 658.875 181.789 659.195 181.544C659.515 181.299 659.675 180.989 659.675 180.616C659.675 180.232 659.504 179.949 659.163 179.768C658.821 179.576 658.293 179.389 657.579 179.208C656.928 179.037 656.395 178.867 655.979 178.696C655.573 178.515 655.221 178.253 654.923 177.912C654.635 177.56 654.491 177.101 654.491 176.536C654.491 176.088 654.624 175.677 654.891 175.304C655.157 174.931 655.536 174.637 656.027 174.424C656.517 174.2 657.077 174.088 657.707 174.088C658.677 174.088 659.461 174.333 660.059 174.824C660.656 175.315 660.976 175.987 661.019 176.84H659.563C659.531 176.381 659.344 176.013 659.003 175.736C658.672 175.459 658.224 175.32 657.659 175.32C657.136 175.32 656.72 175.432 656.411 175.656C656.101 175.88 655.947 176.173 655.947 176.536C655.947 176.824 656.037 177.064 656.219 177.256C656.411 177.437 656.645 177.587 656.923 177.704C657.211 177.811 657.605 177.933 658.107 178.072C658.736 178.243 659.248 178.413 659.643 178.584C660.037 178.744 660.373 178.989 660.651 179.32C660.939 179.651 661.088 180.083 661.099 180.616C661.099 181.096 660.965 181.528 660.699 181.912C660.432 182.296 660.053 182.6 659.563 182.824C659.083 183.037 658.528 183.144 657.899 183.144ZM664.93 175.432V180.6C664.93 181.027 665.021 181.331 665.202 181.512C665.383 181.683 665.698 181.768 666.146 181.768H667.218V183H665.906C665.095 183 664.487 182.813 664.082 182.44C663.677 182.067 663.474 181.453 663.474 180.6V175.432H662.338V174.232H663.474V172.024H664.93V174.232H667.218V175.432H664.93Z" fill="#64748B"/>
    </g>
    <!-- #endregion -->

    <!-- #region additional  -->
    <g class="animate-fade-in-right additional">
      <g class="additional__indicator animate-fade-in">
        <circle cx="373" cy="215" r="5" fill="#7733ff" class="animate-ping"/>
        <circle cx="373" cy="215" r="3" fill="#7733ff"/>
      </g>
      <g class="additional__text">
        <path d="M386.132 219L389.156 210.06H391.628L394.652 219H392.624L392.024 217.176H388.748L388.148 219H386.132ZM389.264 215.556H391.508L390.14 211.332H390.644L389.264 215.556ZM397.501 219L394.441 210.06H396.481L398.785 217.236H398.377L400.681 210.06H402.721L399.661 219H397.501ZM402.503 219L405.527 210.06H407.999L411.023 219H408.995L408.395 217.176H405.119L404.519 219H402.503ZM405.635 215.556H407.879L406.511 211.332H407.015L405.635 215.556ZM411.952 219V210.06H413.812V219H411.952ZM415.397 219V210.06H417.257V217.38H421.037V219H415.397ZM421.3 219L424.324 210.06H426.796L429.82 219H427.792L427.192 217.176H423.916L423.316 219H421.3ZM424.432 215.556H426.676L425.308 211.332H425.812L424.432 215.556ZM430.749 219V210.06H434.529C435.145 210.06 435.673 210.164 436.113 210.372C436.553 210.58 436.889 210.88 437.121 211.272C437.353 211.656 437.469 212.124 437.469 212.676C437.469 213.068 437.361 213.444 437.145 213.804C436.929 214.156 436.573 214.452 436.077 214.692V213.78C436.549 213.964 436.913 214.184 437.169 214.44C437.425 214.696 437.601 214.976 437.697 215.28C437.793 215.576 437.841 215.888 437.841 216.216C437.841 217.096 437.549 217.78 436.965 218.268C436.381 218.756 435.569 219 434.529 219H430.749ZM432.609 217.38H434.745C435.121 217.38 435.421 217.272 435.645 217.056C435.869 216.84 435.981 216.56 435.981 216.216C435.981 215.864 435.869 215.58 435.645 215.364C435.421 215.148 435.121 215.04 434.745 215.04H432.609V217.38ZM432.609 213.42H434.661C434.949 213.42 435.177 213.34 435.345 213.18C435.521 213.012 435.609 212.792 435.609 212.52C435.609 212.248 435.521 212.032 435.345 211.872C435.177 211.704 434.949 211.62 434.661 211.62H432.609V213.42ZM439.034 219V210.06H440.894V217.38H444.674V219H439.034ZM445.597 219V210.06H451.609V211.68H447.457V213.708H451.369V215.328H447.457V217.38H451.609V219H445.597ZM454.819 219V210.06H460.939V211.68H456.679V213.948H460.339V215.568H456.679V219H454.819ZM466.221 219.144C465.549 219.144 464.925 219.028 464.349 218.796C463.773 218.564 463.269 218.24 462.837 217.824C462.413 217.4 462.081 216.908 461.841 216.348C461.601 215.788 461.481 215.18 461.481 214.524C461.481 213.868 461.597 213.26 461.829 212.7C462.069 212.14 462.401 211.652 462.825 211.236C463.257 210.82 463.761 210.496 464.337 210.264C464.913 210.032 465.541 209.916 466.221 209.916C466.901 209.916 467.529 210.032 468.105 210.264C468.681 210.496 469.181 210.82 469.605 211.236C470.037 211.652 470.369 212.14 470.601 212.7C470.841 213.26 470.961 213.868 470.961 214.524C470.961 215.18 470.841 215.788 470.601 216.348C470.361 216.908 470.025 217.4 469.593 217.824C469.169 218.24 468.669 218.564 468.093 218.796C467.517 219.028 466.893 219.144 466.221 219.144ZM466.221 217.464C466.629 217.464 467.005 217.392 467.349 217.248C467.701 217.104 468.009 216.904 468.273 216.648C468.537 216.384 468.741 216.072 468.885 215.712C469.029 215.352 469.101 214.956 469.101 214.524C469.101 214.092 469.029 213.7 468.885 213.348C468.741 212.988 468.537 212.676 468.273 212.412C468.009 212.148 467.701 211.948 467.349 211.812C467.005 211.668 466.629 211.596 466.221 211.596C465.813 211.596 465.433 211.668 465.081 211.812C464.737 211.948 464.433 212.148 464.169 212.412C463.905 212.676 463.701 212.988 463.557 213.348C463.413 213.7 463.341 214.092 463.341 214.524C463.341 214.956 463.413 215.352 463.557 215.712C463.701 216.072 463.905 216.384 464.169 216.648C464.433 216.904 464.737 217.104 465.081 217.248C465.433 217.392 465.813 217.464 466.221 217.464ZM472.28 219V210.06H475.7C476.316 210.06 476.86 210.168 477.332 210.384C477.812 210.6 478.188 210.92 478.46 211.344C478.732 211.768 478.868 212.292 478.868 212.916C478.868 213.524 478.728 214.044 478.448 214.476C478.168 214.9 477.792 215.22 477.32 215.436L479.36 219H477.272L475.064 215.052L476.264 215.76H474.14V219H472.28ZM474.14 214.14H475.712C475.976 214.14 476.204 214.088 476.396 213.984C476.588 213.88 476.736 213.736 476.84 213.552C476.952 213.368 477.008 213.156 477.008 212.916C477.008 212.668 476.952 212.452 476.84 212.268C476.736 212.084 476.588 211.94 476.396 211.836C476.204 211.732 475.976 211.68 475.712 211.68H474.14V214.14ZM482.44 219V210.06H484.3V213.924H487.78V210.06H489.64V219H487.78V215.544H484.3V219H482.44ZM491.229 219V210.06H493.09V219H491.229ZM494.675 219V210.06H498.095C498.711 210.06 499.255 210.168 499.727 210.384C500.207 210.6 500.583 210.92 500.855 211.344C501.127 211.768 501.263 212.292 501.263 212.916C501.263 213.524 501.123 214.044 500.843 214.476C500.563 214.9 500.187 215.22 499.715 215.436L501.755 219H499.667L497.459 215.052L498.659 215.76H496.535V219H494.675ZM496.535 214.14H498.107C498.371 214.14 498.599 214.088 498.791 213.984C498.983 213.88 499.131 213.736 499.235 213.552C499.347 213.368 499.403 213.156 499.403 212.916C499.403 212.668 499.347 212.452 499.235 212.268C499.131 212.084 498.983 211.94 498.791 211.836C498.599 211.732 498.371 211.68 498.107 211.68H496.535V214.14ZM502.679 219V210.06H508.691V211.68H504.539V213.708H508.451V215.328H504.539V217.38H508.691V219H502.679Z" fill="#7733ff"/>
      </g>
    </g>
    <!-- #endregion -->
  </g>

  <!-- #region defs -->
  <defs>
    <linearGradient id="paint0_linear_1_2" x1="448" y1="0" x2="448" y2="288" gradientUnits="userSpaceOnUse">
      <stop stop-color="#e2e8f0"/>
      <stop offset="1" stop-color="#e2e8f0" stop-opacity="0"/>
    </linearGradient>
    <linearGradient id="paint1_linear_1_2" x1="448" y1="0" x2="448" y2="288" gradientUnits="userSpaceOnUse">
      <stop/>
      <stop offset="1" stop-opacity="0"/>
    </linearGradient>
    <clipPath id="clip0_1_2">
      <path d="M0 32C0 14.3269 14.3269 0 32 0H864C881.673 0 896 14.3269 896 32V288H0V32Z" fill="white"/>
    </clipPath>
  </defs>
  <!-- #endregion -->
</svg>
